<?xml version="1.0" encoding="utf-8"?><svg xmlns="http://www.w3.org/2000/svg" xmlns:xlink="http://www.w3.org/1999/xlink" width="1366" height="661" preserveAspectRatio="xMidYMid" viewBox="0 0 1366 661" style="z-index:1;margin-right:-2px;display:block;background-color:rgb(255, 255, 255);animation-play-state:paused" ><g transform="translate(683,330.5) scale(1,1) translate(-683,-330.5)" style="transform:matrix(1, 0, 0, 1, 0, 0);animation-play-state:paused" ><path id="path0" d="M 1200.808489649465 391.59805596339595
c 0 30.666940717365527 -7.5036131542490105 8.808589354987971 -16.312202509236982 8.808589354987971
S 1168.1840846309908 422.2649966807615 1168.1840846309908 391.59805596339595
s 7.5036131542490105 -8.808589354987971 16.312202509236982 -8.808589354987971
S 1200.808489649465 360.9311152460304 1200.808489649465 391.59805596339595
z" fill="none" stroke="none" style="animation-play-state:paused" ></path>


<circle cx="0" cy="0" r="6.0701449661624425" fill="#ff708e" opacity="0.9" transform="translate(1175.8109130859375 405.4075012207031)" style="opacity:0.9;animation-play-state:paused" ></circle>
<path id="path1" d="M 786.9722559944886 279.1920098016334
c 0 28.189225835879924 -6.897363768353598 8.096905293284658 -14.994269061638256 8.096905293284658
S 756.983717871212 307.3812356375133 756.983717871212 279.1920098016334
s 6.897363768353598 -8.096905293284658 14.994269061638256 -8.096905293284658
S 786.9722559944886 251.00278396575345 786.9722559944886 279.1920098016334
z" fill="none" stroke="none" style="animation-play-state:paused" ></path>


<circle cx="0" cy="0" r="7.931413932352117" fill="#51cacc" opacity="0.9" transform="translate(786.9464721679688 276.39105224609375)" style="opacity:0.9;animation-play-state:paused" ></circle>
<path id="path2" d="M 884.310182168486 479.1826819897058
c 0 23.74504228092363 -5.8099571538430155 6.820384484946149 -12.630341638789165 6.820384484946149
S 859.0494988909076 502.9277242706295 859.0494988909076 479.1826819897058
s 5.8099571538430155 -6.820384484946149 12.630341638789165 -6.820384484946149
S 884.310182168486 455.43763970878217 884.310182168486 479.1826819897058
z" fill="none" stroke="none" style="animation-play-state:paused" ></path>


<circle cx="0" cy="0" r="5.217481251332526" fill="#9df871" opacity="0.9" transform="translate(859.1181030273438 483.2169189453125)" style="opacity:0.9;animation-play-state:paused" ></circle>
<path id="path3" d="M 805.2020639438814 328.49625325463916
c 0 32.26307397194968 -7.894156397391943 9.26705316215576 -17.161209559547704 9.26705316215576
S 770.8796448247859 360.7593272265888 770.8796448247859 328.49625325463916
s 7.894156397391943 -9.26705316215576 17.161209559547704 -9.26705316215576
S 805.2020639438814 296.2331792826895 805.2020639438814 328.49625325463916
z" fill="none" stroke="none" style="animation-play-state:paused" ></path>


<circle cx="0" cy="0" r="5.537546832996077" fill="#9df871" opacity="0.9" transform="translate(798.3347778320312 343.9966125488281)" style="opacity:0.9;animation-play-state:paused" ></circle>
<path id="path4" d="M 634.9850742121289 34.393214710946495
c 0 31.69604038091509 -7.755414135755819 9.10418181153944 -16.85959594729526 9.10418181153944
S 601.2658823175384 66.08925509186159 601.2658823175384 34.393214710946495
s 7.755414135755819 -9.10418181153944 16.85959594729526 -9.10418181153944
S 634.9850742121289 2.6971743300314053 634.9850742121289 34.393214710946495
z" fill="none" stroke="none" style="animation-play-state:paused" ></path>


<circle cx="0" cy="0" r="5.016779696173655" fill="#e0ff77" opacity="0.9" transform="translate(634.9412231445312 38.222373962402344)" style="opacity:0.9;animation-play-state:paused" ></circle>
<path id="path5" d="M 148.53589856717323 562.8204693293021
c 0 35.35674991587554 -8.651119660267419 10.155662209879145 -18.806781870146562 10.155662209879145
S 110.92233482688012 598.1772192451776 110.92233482688012 562.8204693293021
s 8.651119660267419 -10.155662209879145 18.806781870146562 -10.155662209879145
S 148.53589856717323 527.4637194134266 148.53589856717323 562.8204693293021
z" fill="none" stroke="none" style="animation-play-state:paused" ></path>


<circle cx="0" cy="0" r="5.680061475162404" fill="#e0ff77" opacity="0.9" transform="translate(112.70816040039062 545.664794921875)" style="opacity:0.9;animation-play-state:paused" ></circle>
<path id="path6" d="M 1333.8592283017044 586.0560373954097
c 0 23.334718536007475 -5.709558790725233 6.702525536938317 -12.41208432766355 6.702525536938317
S 1309.0350596463775 609.3907559314172 1309.0350596463775 586.0560373954097
s 5.709558790725233 -6.702525536938317 12.41208432766355 -6.702525536938317
S 1333.8592283017044 562.7213188594022 1333.8592283017044 586.0560373954097
z" fill="none" stroke="none" style="animation-play-state:paused" ></path>


<circle cx="0" cy="0" r="6.805368533479124" fill="#51cacc" opacity="0.9" transform="translate(1330.1895751953125 598.1702270507812)" style="opacity:0.9;animation-play-state:paused" ></circle>
<path id="path7" d="M 127.25340324865799 336.431798630591
c 0 19.9764784148293 -4.887861739798659 5.737924651067991 -10.625786390866649 5.737924651067991
S 106.00183046692469 356.4082770454203 106.00183046692469 336.431798630591
s 4.887861739798659 -5.737924651067991 10.625786390866649 -5.737924651067991
S 127.25340324865799 316.45532021576173 127.25340324865799 336.431798630591
z" fill="none" stroke="none" style="animation-play-state:paused" ></path>


<circle cx="0" cy="0" r="5.952722689794586" fill="#9df871" opacity="0.9" transform="translate(126.07138061523438 326.4263916015625)" style="opacity:0.9;animation-play-state:paused" ></circle>
<path id="path8" d="M 1264.9462789039237 613.3057307260551
c 0 35.789078602647784 -8.756902211286159 10.27984172629245 -19.03674393757861 10.27984172629245
S 1226.8727910287664 649.0948093287029 1226.8727910287664 613.3057307260551
s 8.756902211286159 -10.27984172629245 19.03674393757861 -10.27984172629245
S 1264.9462789039237 577.5166521234073 1264.9462789039237 613.3057307260551
z" fill="none" stroke="none" style="animation-play-state:paused" ></path>


<circle cx="0" cy="0" r="5.280941062202764" fill="#e0ff77" opacity="0.9" transform="translate(1245.58935546875 603.0174560546875)" style="opacity:0.9;animation-play-state:paused" ></circle>
<path id="path9" d="M 536.7197282650865 423.8386521830034
c 0 31.80380772015865 -7.781782740038818 9.13513626004557 -16.91691900008439 9.13513626004557
S 502.88589026491775 455.64245990316203 502.88589026491775 423.8386521830034
s 7.781782740038818 -9.13513626004557 16.91691900008439 -9.13513626004557
S 536.7197282650865 392.0348444628447 536.7197282650865 423.8386521830034
z" fill="none" stroke="none" style="animation-play-state:paused" ></path>


<circle cx="0" cy="0" r="6.334400694163104" fill="#51cacc" opacity="0.9" transform="translate(502.94580078125 419.4004821777344)" style="opacity:0.9;animation-play-state:paused" ></circle>
<path id="path10" d="M 53.52186777113767 329.212826655668
c 0 30.172508075029974 -7.382634954528609 8.666571468359674 -16.049206422888282 8.666571468359674
S 21.423454925361106 359.38533473069793 21.423454925361106 329.212826655668
s 7.382634954528609 -8.666571468359674 16.049206422888282 -8.666571468359674
S 53.52186777113767 299.04031858063803 53.52186777113767 329.212826655668
z" fill="none" stroke="none" style="animation-play-state:paused" ></path>


<circle cx="0" cy="0" r="7.457589331378832" fill="#de9dd6" opacity="0.9" transform="translate(52.77570343017578 341.25640869140625)" style="opacity:0.9;animation-play-state:paused" ></circle>
<path id="path11" d="M 483.19961431258207 427.82011103689416
c 0 33.67547744316243 -8.239744480773783 9.672743520908357 -17.912488001682142 9.672743520908357
S 447.37463830921774 461.4955884800566 447.37463830921774 427.82011103689416
s 8.239744480773783 -9.672743520908357 17.912488001682142 -9.672743520908357
S 483.19961431258207 394.1446335937317 483.19961431258207 427.82011103689416
z" fill="none" stroke="none" style="animation-play-state:paused" ></path>


<circle cx="0" cy="0" r="7.987572095179539" fill="#de9dd6" opacity="0.9" transform="translate(447.43096923828125 432.2763366699219)" style="opacity:0.9;animation-play-state:paused" ></circle>
<path id="path12" d="M 309.9583457422386 301.5559773234611
c 0 31.14715112381865 -7.621111445189669 8.946522131309612 -16.567633576499283 8.946522131309612
S 276.82307858923997 332.70312844727977 276.82307858923997 301.5559773234611
s 7.621111445189669 -8.946522131309612 16.567633576499283 -8.946522131309612
S 309.9583457422386 270.4088261996424 309.9583457422386 301.5559773234611
z" fill="none" stroke="none" style="animation-play-state:paused" ></path>


<circle cx="0" cy="0" r="5.472446035518125" fill="#de9dd6" opacity="0.9" transform="translate(298.6415710449219 312.6289367675781)" style="opacity:0.9;animation-play-state:paused" ></circle>
<path id="path13" d="M 286.1002586686182 234.9015790356316
c 0 21.275049070790253 -5.2055971130657 6.110918350120605 -11.316515463186306 6.110918350120605
S 263.4672277422456 256.17662810642184 263.4672277422456 234.9015790356316
s 5.2055971130657 -6.110918350120605 11.316515463186306 -6.110918350120605
S 286.1002586686182 213.62652996484135 286.1002586686182 234.9015790356316
z" fill="none" stroke="none" style="animation-play-state:paused" ></path>


<circle cx="0" cy="0" r="5.993075401217889" fill="#9df871" opacity="0.9" transform="translate(269.337158203125 243.9794464111328)" style="opacity:0.9;animation-play-state:paused" ></circle>
<path id="path14" d="M 692.60830885666 33.97939227161668
c 0 36.533035604139165 -8.938934243565964 10.493531503316568 -19.43246574688253 10.493531503316568
S 653.743377362895 70.51242787575585 653.743377362895 33.97939227161668
s 8.938934243565964 -10.493531503316568 19.43246574688253 -10.493531503316568
S 692.60830885666 -2.5536433325224834 692.60830885666 33.97939227161668
z" fill="none" stroke="none" style="animation-play-state:paused" ></path>


<circle cx="0" cy="0" r="4.961424996590262" fill="#de9dd6" opacity="0.9" transform="translate(653.7659301757812 30.968090057373047)" style="opacity:0.9;animation-play-state:paused" ></circle>
<path id="path15" d="M 958.4098565938896 55.9948912975163
c 0 32.44640362068184 -7.939013651868961 9.319711678280955 -17.258725330149915 9.319711678280955
S 923.8924059335898 88.44129491819814 923.8924059335898 55.9948912975163
s 7.939013651868961 -9.319711678280955 17.258725330149915 -9.319711678280955
S 958.4098565938896 23.548487676834455 958.4098565938896 55.9948912975163
z" fill="none" stroke="none" style="animation-play-state:paused" ></path>


<circle cx="0" cy="0" r="4.8258621452295865" fill="#ff708e" opacity="0.9" transform="translate(938.7122802734375 65.80415344238281)" style="opacity:0.9;animation-play-state:paused" ></circle>
<path id="path16" d="M 506.4745604356146 598.6456549648169
c 0 35.645868778406914 -8.721861509610202 10.238706989542413 -18.960568499152615 10.238706989542413
S 468.5534234373094 634.2915237432238 468.5534234373094 598.6456549648169
s 8.721861509610202 -10.238706989542413 18.960568499152615 -10.238706989542413
S 506.4745604356146 562.99978618641 506.4745604356146 598.6456549648169
z" fill="none" stroke="none" style="animation-play-state:paused" ></path>


<circle cx="0" cy="0" r="4.322114682172136" fill="#51cacc" opacity="0.9" transform="translate(477.61932373046875 614.523193359375)" style="opacity:0.9;animation-play-state:paused" ></circle>
<path id="path17" d="M 1336.245409162882 637.8515150153539
c 0 31.328818632438605 -7.665562005809445 8.99870322421109 -16.664265230020533 8.99870322421109
S 1302.9168787028407 669.1803336477925 1302.9168787028407 637.8515150153539
s 7.665562005809445 -8.99870322421109 16.664265230020533 -8.99870322421109
S 1336.245409162882 606.5226963829153 1336.245409162882 637.8515150153539
z" fill="none" stroke="none" style="animation-play-state:paused" ></path>


<circle cx="0" cy="0" r="7.2287059835567185" fill="#9df871" opacity="0.9" transform="translate(1330.4873046875 653.593994140625)" style="opacity:0.9;animation-play-state:paused" ></circle>
<path id="path18" d="M 895.6180882136958 490.82664706992523
c 0 25.921489346607082 -6.342492074169817 7.445534174025439 -13.788026248195255 7.445534174025439
S 868.0420357173053 516.7481364165324 868.0420357173053 490.82664706992523
s 6.342492074169817 -7.445534174025439 13.788026248195255 -7.445534174025439
S 895.6180882136958 464.90515772331815 895.6180882136958 490.82664706992523
z" fill="none" stroke="none" style="animation-play-state:paused" ></path>


<circle cx="0" cy="0" r="4.89247978233467" fill="#9df871" opacity="0.9" transform="translate(868.0504760742188 489.2608337402344)" style="opacity:0.9;animation-play-state:paused" ></circle>
<path id="path19" d="M 1183.0423100145194 589.2602518423695
c 0 35.449717561399986 -8.673867062895741 10.182365682529785 -18.856232745425526 10.182365682529785
S 1145.3298445236683 624.7099694037695 1145.3298445236683 589.2602518423695
s 8.673867062895741 -10.182365682529785 18.856232745425526 -10.182365682529785
S 1183.0423100145194 553.8105342809695 1183.0423100145194 589.2602518423695
z" fill="none" stroke="none" style="animation-play-state:paused" ></path>


<circle cx="0" cy="0" r="4.063407057991735" fill="#ff708e" opacity="0.9" transform="translate(1146.6279296875 605.1600341796875)" style="opacity:0.9;animation-play-state:paused" ></circle>
<path id="path20" d="M 1084.8182359399684 165.0083745174161
c 0 35.65898402264818 -8.725070558733062 10.242474134164901 -18.967544692897963 10.242474134164901
S 1046.8831465541725 200.66735854006427 1046.8831465541725 165.0083745174161
s 8.725070558733062 -10.242474134164901 18.967544692897963 -10.242474134164901
S 1084.8182359399684 129.3493904947679 1084.8182359399684 165.0083745174161
z" fill="none" stroke="none" style="animation-play-state:paused" ></path>


<circle cx="0" cy="0" r="7.819063151633976" fill="#9df871" opacity="0.9" transform="translate(1084.5284423828125 174.44503784179688)" style="opacity:0.9;animation-play-state:paused" ></circle>
<path id="path21" d="M 1179.8864520123363 540.544122943795
c 0 31.872998521997218 -7.798712404318468 9.15501021376516 -16.953722618083628 9.15501021376516
S 1145.979006776169 572.4171214657922 1145.979006776169 540.544122943795
s 7.798712404318468 -9.15501021376516 16.953722618083628 -9.15501021376516
S 1179.8864520123363 508.67112442179774 1179.8864520123363 540.544122943795
z" fill="none" stroke="none" style="animation-play-state:paused" ></path>


<circle cx="0" cy="0" r="6.11896526691986" fill="#51cacc" opacity="0.9" transform="translate(1167.859375 529.5281982421875)" style="opacity:0.9;animation-play-state:paused" ></circle>
<path id="path22" d="M 1001.5140563855576 184.64633450076425
c 0 22.06800514167204 -5.399618279345286 6.338682327927075 -11.738300607272361 6.338682327927075
S 978.037455171013 206.7143396424363 978.037455171013 184.64633450076425
s 5.399618279345286 -6.338682327927075 11.738300607272361 -6.338682327927075
S 1001.5140563855576 162.5783293590922 1001.5140563855576 184.64633450076425
z" fill="none" stroke="none" style="animation-play-state:paused" ></path>


<circle cx="0" cy="0" r="6.475132953143859" fill="#51cacc" opacity="0.9" transform="translate(999.685302734375 196.24514770507812)" style="opacity:0.9;animation-play-state:paused" ></circle>
<path id="path23" d="M 543.90174640768 449.66790486496234
c 0 32.30367735354833 -7.90409126735757 9.27871583559367 -17.18280710295124 9.27871583559367
S 509.53613220177755 481.97158221851066 509.53613220177755 449.66790486496234
s 7.90409126735757 -9.27871583559367 17.18280710295124 -9.27871583559367
S 543.90174640768 417.364227511414 543.90174640768 449.66790486496234
z" fill="none" stroke="none" style="animation-play-state:paused" ></path>


<circle cx="0" cy="0" r="7.6339349524942985" fill="#de9dd6" opacity="0.9" transform="translate(515.2569580078125 466.0489196777344)" style="opacity:0.9;animation-play-state:paused" ></circle>
<path id="path24" d="M 33.00191654685852 49.91681843477518
c 0 28.52533583561367 -6.979603449139514 8.193447527250736 -15.17305097639025 8.193447527250736
S 2.6558145940780165 78.44215427038885 2.6558145940780165 49.91681843477518
s 6.979603449139514 -8.193447527250736 15.17305097639025 -8.193447527250736
S 33.00191654685852 21.39148259916151 33.00191654685852 49.91681843477518
z" fill="none" stroke="none" style="animation-play-state:paused" ></path>


<circle cx="0" cy="0" r="5.1854878714658" fill="#51cacc" opacity="0.9" transform="translate(32.20364761352539 61.75379180908203)" style="opacity:0.9;animation-play-state:paused" ></circle>
<path id="path25" d="M 141.44641670339126 146.54377755511842
c 0 37.26606663745499 -9.118292900653879 10.704082970332816 -19.822375870986694 10.704082970332816
S 101.80166496141787 183.80984419257342 101.80166496141787 146.54377755511842
s 9.118292900653879 -10.704082970332816 19.822375870986694 -10.704082970332816
S 141.44641670339126 109.27771091766343 141.44641670339126 146.54377755511842
z" fill="none" stroke="none" style="animation-play-state:paused" ></path>


<circle cx="0" cy="0" r="6.519153162653091" fill="#ff708e" opacity="0.9" transform="translate(125.13577270507812 158.1136474609375)" style="opacity:0.9;animation-play-state:paused" ></circle>
<path id="path26" d="M 171.11277727435908 180.4044374774796
c 0 24.38837381598734 -5.967368061358604 7.0051712024644495 -12.972539263823053 7.0051712024644495
S 145.16769874671297 204.79281129346694 145.16769874671297 180.4044374774796
s 5.967368061358604 -7.0051712024644495 12.972539263823053 -7.0051712024644495
S 171.11277727435908 156.01606366149227 171.11277727435908 180.4044374774796
z" fill="none" stroke="none" style="animation-play-state:paused" ></path>


<circle cx="0" cy="0" r="7.466580367234571" fill="#de9dd6" opacity="0.9" transform="translate(151.33973693847656 191.2942657470703)" style="opacity:0.9;animation-play-state:paused" ></circle>
<path id="path27" d="M 1045.939135066437 122.20215225502822
c 0 33.67207458415517 -8.238911866335838 9.671766103959463 -17.9106779702953 9.671766103959463
S 1010.1177791258464 155.8742268391834 1010.1177791258464 122.20215225502822
s 8.238911866335838 -9.671766103959463 17.9106779702953 -9.671766103959463
S 1045.939135066437 88.53007767087306 1045.939135066437 122.20215225502822
z" fill="none" stroke="none" style="animation-play-state:paused" ></path>


<circle cx="0" cy="0" r="5.084167355273441" fill="#9df871" opacity="0.9" transform="translate(1031.7847900390625 132.9498291015625)" style="opacity:0.9;animation-play-state:paused" ></circle>
<path id="path28" d="M 1291.3303453222547 267.7636612112196
c 0 34.14091777577929 -8.353628817477912 9.806433829213201 -18.160062646691113 9.806433829213201
S 1255.0102200288725 301.9045789869989 1255.0102200288725 267.7636612112196
s 8.353628817477912 -9.806433829213201 18.160062646691113 -9.806433829213201
S 1291.3303453222547 233.6227434354403 1291.3303453222547 267.7636612112196
z" fill="none" stroke="none" style="animation-play-state:paused" ></path>


<circle cx="0" cy="0" r="7.293040773230009" fill="#51cacc" opacity="0.9" transform="translate(1256.1981201171875 282.8619384765625)" style="opacity:0.9;animation-play-state:paused" ></circle>
<path id="path29" d="M 718.8643951526296 637.7451128687392
c 0 34.16196633084645 -8.358778995845405 9.812479690775042 -18.171258686620448 9.812479690775042
S 682.5218777793887 671.9070791995856 682.5218777793887 637.7451128687392
s 8.358778995845405 -9.812479690775042 18.171258686620448 -9.812479690775042
S 718.8643951526296 603.5831465378927 718.8643951526296 637.7451128687392
z" fill="none" stroke="none" style="animation-play-state:paused" ></path>


<circle cx="0" cy="0" r="5.948428973295435" fill="#ff708e" opacity="0.9" transform="translate(699.5916137695312 627.8333129882812)" style="opacity:0.9;animation-play-state:paused" ></circle></g></svg>