<?xml version="1.0" encoding="utf-8"?><svg xmlns="http://www.w3.org/2000/svg" xmlns:xlink="http://www.w3.org/1999/xlink" width="1376" height="661" preserveAspectRatio="xMidYMid" viewBox="0 0 1376 661" style="z-index:1;margin-right:-2px;display:block;background-color:rgb(27, 14, 223);animation-play-state:paused" ><g transform="translate(688,330.5) scale(1,1) translate(-688,-330.5)" style="transform:matrix(1, 0, 0, 1, 0, 0);animation-play-state:paused" ><defs style="animation-play-state:paused" ><path id="path-o4itx9a0zeh-1" d="M-35 -35L35 -35L35 35L-35 35Z" fill="none" stroke="inherit" stroke-width="9.000000000000002" transform="scale(0.3)" style="transform:matrix(0.3, 0, 0, 0.3, 0, 0);animation-play-state:paused" ></path>

  
<path id="path-o4itx9a0zeh-2" d="M0 -37A37 37 0 0 1 0 37A37 37 0 0 1 0 -37" fill="none" stroke="inherit" stroke-width="9.000000000000002" transform="scale(0.3)" style="transform:matrix(0.3, 0, 0, 0.3, 0, 0);animation-play-state:paused" ></path>

  
<path id="path-o4itx9a0zeh-3" d="M0 -34.641L40 34.641L-40 34.641Z" fill="none" stroke="inherit" stroke-width="9.000000000000002" transform="scale(0.3)" style="transform:matrix(0.3, 0, 0, 0.3, 0, 0);animation-play-state:paused" ></path></defs>
<path id="path0" d="M 56.300799799998174 190.03677973232323
c 0 61.91872900638235 -15.150327310072274 17.78516684225876 -32.93549415233103 17.78516684225876
S -9.57018850466389 251.9555087387056 -9.57018850466389 190.03677973232323
s 15.150327310072274 -17.78516684225876 32.93549415233103 -17.78516684225876
S 56.300799799998174 128.11805072594086 56.300799799998174 190.03677973232323
z" fill="none" stroke="none" style="animation-play-state:paused" ></path>


<use xlink:href="#path-o4itx9a0zeh-2" x="0" y="0" stroke="#ddeeff" transform="translate(55.59932327270508 208.74009704589844)" style="animation-play-state:paused" ></use>
<path id="path1" d="M 127.60481514918571 394.870759035777
c 0 22.43750303456934 -5.490027338245689 6.444814701418853 -11.934842039664542 6.444814701418853
S 103.73513106985662 417.3082620703463 103.73513106985662 394.870759035777
s 5.490027338245689 -6.444814701418853 11.934842039664542 -6.444814701418853
S 127.60481514918571 372.43325600120767 127.60481514918571 394.870759035777
z" fill="none" stroke="none" style="animation-play-state:paused" ></path>


<use xlink:href="#path-o4itx9a0zeh-2" x="0" y="0" stroke="#aabbcc" transform="translate(104.14240264892578 386.80029296875)" style="animation-play-state:paused" ></use>
<path id="path2" d="M 234.1581510158257 207.89057934642713
c 0 24.950760535495466 -6.104973322514847 7.166707813386996 -13.271681135901844 7.166707813386996
S 207.614788744022 232.8413398819226 207.614788744022 207.89057934642713
s 6.104973322514847 -7.166707813386996 13.271681135901844 -7.166707813386996
S 234.1581510158257 182.93981881093165 234.1581510158257 207.89057934642713
z" fill="none" stroke="none" style="animation-play-state:paused" ></path>


<use xlink:href="#path-o4itx9a0zeh-3" x="0" y="0" stroke="#aabbcc" transform="translate(234.14175415039062 205.7662353515625)" style="animation-play-state:paused" ></use>
<path id="path3" d="M 281.22038503681233 356.28186210964367
c 0 32.07396172611467 -7.847884252134438 9.212733687288255 -17.06061793942269 9.212733687288255
S 247.09914915796696 388.3558238357583 247.09914915796696 356.28186210964367
s 7.847884252134438 -9.212733687288255 17.06061793942269 -9.212733687288255
S 281.22038503681233 324.207900383529 281.22038503681233 356.28186210964367
z" fill="none" stroke="none" style="animation-play-state:paused" ></path>


<use xlink:href="#path-o4itx9a0zeh-3" x="0" y="0" stroke="#ddeeff" transform="translate(247.18118286132812 361.42974853515625)" style="animation-play-state:paused" ></use>
<path id="path4" d="M 381.896475585935 426.9738947231783
c 0 57.66060889166083 -14.1084468564702 16.56208978803024 -30.670536644500437 16.56208978803024
S 320.5554022969341 484.63450361483916 320.5554022969341 426.9738947231783
s 14.1084468564702 -16.56208978803024 30.670536644500437 -16.56208978803024
S 381.896475585935 369.3132858315175 381.896475585935 426.9738947231783
z" fill="none" stroke="none" style="animation-play-state:paused" ></path>


<use xlink:href="#path-o4itx9a0zeh-2" x="0" y="0" stroke="#aabbcc" transform="translate(363.2752380371094 449.2763366699219)" style="animation-play-state:paused" ></use>
<path id="path5" d="M 492.29718509351596 217.16524497120088
c 0 48.944254339066134 -11.975721806367245 14.05845603356155 -26.034177839928795 14.05845603356155
S 440.22882941365833 266.109499310267 440.22882941365833 217.16524497120088
s 11.975721806367245 -14.05845603356155 26.034177839928795 -14.05845603356155
S 492.29718509351596 168.22099063213474 492.29718509351596 217.16524497120088
z" fill="none" stroke="none" style="animation-play-state:paused" ></path>


<use xlink:href="#path-o4itx9a0zeh-2" x="0" y="0" stroke="#bbddff" transform="translate(440.39495849609375 208.23526000976562)" style="animation-play-state:paused" ></use>
<path id="path6" d="M 516.8502019981779 318.87220622097743
c 0 47.617051884798464 -11.650980780323026 13.67723830733573 -25.328219087658756 13.67723830733573
S 466.1937638228604 366.4892581057759 466.1937638228604 318.87220622097743
s 11.650980780323026 -13.67723830733573 25.328219087658756 -13.67723830733573
S 516.8502019981779 271.255154336179 516.8502019981779 318.87220622097743
z" fill="none" stroke="none" style="animation-play-state:paused" ></path>


<use xlink:href="#path-o4itx9a0zeh-3" x="0" y="0" stroke="#bbddff" transform="translate(509.5190124511719 343.6755065917969)" style="animation-play-state:paused" ></use>
<path id="path7" d="M 577.7795895241829 326.53591336103557
c 0 63.01471100310283 -15.418493117780478 18.099970181742304 -33.51846329952278 18.099970181742304
S 510.74266292513744 389.5506243641384 510.74266292513744 326.53591336103557
s 15.418493117780478 -18.099970181742304 33.51846329952278 -18.099970181742304
S 577.7795895241829 263.52120235793274 577.7795895241829 326.53591336103557
z" fill="none" stroke="none" style="animation-play-state:paused" ></path>


<use xlink:href="#path-o4itx9a0zeh-1" x="0" y="0" stroke="#aabbcc" transform="translate(573.9373168945312 294.8027648925781)" style="animation-play-state:paused" ></use>
<path id="path8" d="M 636.3732216072557 314.14256352298344
c 0 29.913733576948424 -7.319317790104401 8.592242623166037 -15.911560413270438 8.592242623166037
S 604.5501007807148 344.05629709993184 604.5501007807148 314.14256352298344
s 7.319317790104401 -8.592242623166037 15.911560413270438 -8.592242623166037
S 636.3732216072557 284.22882994603503 636.3732216072557 314.14256352298344
z" fill="none" stroke="none" style="animation-play-state:paused" ></path>


<use xlink:href="#path-o4itx9a0zeh-3" x="0" y="0" stroke="#ddeeff" transform="translate(610.6431274414062 299.5533752441406)" style="animation-play-state:paused" ></use>
<path id="path9" d="M 769.4885824157303 414.74772177290015
c 0 55.26914691722071 -13.523301905277407 15.875180497499567 -29.398482402776974 15.875180497499567
S 710.6916176101764 470.0168686901209 710.6916176101764 414.74772177290015
s 13.523301905277407 -15.875180497499567 29.398482402776974 -15.875180497499567
S 769.4885824157303 359.4785748556794 769.4885824157303 414.74772177290015
z" fill="none" stroke="none" style="animation-play-state:paused" ></path>


<use xlink:href="#path-o4itx9a0zeh-3" x="0" y="0" stroke="#bbddff" transform="translate(761.2393798828125 443.6659240722656)" style="animation-play-state:paused" ></use>
<path id="path10" d="M 793.6297330604189 216.48263882163616
c 0 22.47762691480264 -5.499844883409156 6.456339645741184 -11.95618452915034 6.456339645741184
S 769.7173640021181 238.9602657364388 769.7173640021181 216.48263882163616
s 5.499844883409156 -6.456339645741184 11.95618452915034 -6.456339645741184
S 793.6297330604189 194.00501190683352 793.6297330604189 216.48263882163616
z" fill="none" stroke="none" style="animation-play-state:paused" ></path>


<use xlink:href="#path-o4itx9a0zeh-1" x="0" y="0" stroke="#aabbcc" transform="translate(781.5223999023438 222.94189453125)" style="animation-play-state:paused" ></use>
<path id="path11" d="M 860.9551494935275 286.10512175523553
c 0 29.82215050776158 -7.296909166792727 8.565936847974072 -15.862846014766799 8.565936847974072
S 829.229457463994 315.9272722629971 829.229457463994 286.10512175523553
s 7.296909166792727 -8.565936847974072 15.862846014766799 -8.565936847974072
S 860.9551494935275 256.28297124747394 860.9551494935275 286.10512175523553
z" fill="none" stroke="none" style="animation-play-state:paused" ></path>


<use xlink:href="#path-o4itx9a0zeh-2" x="0" y="0" stroke="#ddeeff" transform="translate(855.5338745117188 271.0776062011719)" style="animation-play-state:paused" ></use>
<path id="path12" d="M 947.5061976900208 433.28479869936064
c 0 33.74416471995207 -8.25655094211593 9.692472845092617 -17.949023787208546 9.692472845092617
S 911.6081501156038 467.02896341931273 911.6081501156038 433.28479869936064
s 8.25655094211593 -9.692472845092617 17.949023787208546 -9.692472845092617
S 947.5061976900208 399.54063397940854 947.5061976900208 433.28479869936064
z" fill="none" stroke="none" style="animation-play-state:paused" ></path>


<use xlink:href="#path-o4itx9a0zeh-1" x="0" y="0" stroke="#bbddff" transform="translate(946.0739135742188 417.5599060058594)" style="animation-play-state:paused" ></use>
<path id="path13" d="M 997.2237807199829 217.7606932932735
c 0 19.98006835694974 -4.888740129891957 5.7389558046557765 -10.627695934547734 5.7389558046557765
S 975.9683888508873 237.74076165022325 975.9683888508873 217.7606932932735
s 4.888740129891957 -5.7389558046557765 10.627695934547734 -5.7389558046557765
S 997.2237807199829 197.78062493632376 997.2237807199829 217.7606932932735
z" fill="none" stroke="none" style="animation-play-state:paused" ></path>


<use xlink:href="#path-o4itx9a0zeh-1" x="0" y="0" stroke="#aabbcc" transform="translate(975.970458984375 218.29205322265625)" style="animation-play-state:paused" ></use>
<path id="path14" d="M 1101.7795910364864 153.1134042339924
c 0 32.14813617821345 -7.866033320201161 9.234039115018756 -17.100072435219918 9.234039115018756
S 1067.5794461660464 185.26154041220587 1067.5794461660464 153.1134042339924
s 7.866033320201161 -9.234039115018756 17.100072435219918 -9.234039115018756
S 1101.7795910364864 120.96526805577896 1101.7795910364864 153.1134042339924
z" fill="none" stroke="none" style="animation-play-state:paused" ></path>


<use xlink:href="#path-o4itx9a0zeh-3" x="0" y="0" stroke="#ddeeff" transform="translate(1067.5794677734375 153.08558654785156)" style="animation-play-state:paused" ></use>
<path id="path15" d="M 1225.2580271765205 133.31174381323908
c 0 49.8211243695902 -12.190275111708239 14.310322957222716 -26.500598068930955 14.310322957222716
S 1172.2568310386587 183.13286818282927 1172.2568310386587 133.31174381323908
s 12.190275111708239 -14.310322957222716 26.500598068930955 -14.310322957222716
S 1225.2580271765205 83.49061944364888 1225.2580271765205 133.31174381323908
z" fill="none" stroke="none" style="animation-play-state:paused" ></path>


<use xlink:href="#path-o4itx9a0zeh-2" x="0" y="0" stroke="#bbddff" transform="translate(1225.246337890625 130.76185607910156)" style="animation-play-state:paused" ></use>
<path id="path16" d="M 1251.76481552626 524.0475352641487
c 0 37.49267845337334 -9.1737404726339 10.769173598309363 -19.942914070943264 10.769173598309363
S 1211.8789873843734 561.540213717522 1211.8789873843734 524.0475352641487
s 9.1737404726339 -10.769173598309363 19.942914070943264 -10.769173598309363
S 1251.76481552626 486.55485681077533 1251.76481552626 524.0475352641487
z" fill="none" stroke="none" style="animation-play-state:paused" ></path>


<use xlink:href="#path-o4itx9a0zeh-1" x="0" y="0" stroke="#ddeeff" transform="translate(1232.0128173828125 534.8197631835938)" style="animation-play-state:paused" ></use>
<path id="path17" d="M 1347.3184222753705 363.32553377077363
c 0 47.9710901882335 -11.737607173716706 13.778930160450047 -25.516537334166753 13.778930160450047
S 1296.285347607037 411.29662395900715 1296.285347607037 363.32553377077363
s 11.737607173716706 -13.778930160450047 25.516537334166753 -13.778930160450047
S 1347.3184222753705 315.3544435825401 1347.3184222753705 363.32553377077363
z" fill="none" stroke="none" style="animation-play-state:paused" ></path>


<use xlink:href="#path-o4itx9a0zeh-2" x="0" y="0" stroke="#ddeeff" transform="translate(1338.161865234375 387.18731689453125)" style="animation-play-state:paused" ></use></g></svg>