<?xml version="1.0" encoding="utf-8"?><svg xmlns="http://www.w3.org/2000/svg" xmlns:xlink="http://www.w3.org/1999/xlink" width="1366" height="661" preserveAspectRatio="xMidYMid" viewBox="0 0 1366 661" style="z-index:1;margin-right:-2px;display:block;background-color:rgb(241, 242, 243);animation-play-state:paused" ><g transform="translate(683,330.5) scale(1,1) translate(-683,-330.5)" style="transform:matrix(1, 0, 0, 1, 0, 0);animation-play-state:paused" ><g id="bk-0.40149694136910163" style="animation-play-state:paused" ><path d="M 712 361 L 610 256 L 632 370 Z" stroke="#d68a50" fill="#d68a50" style="animation-play-state:paused" ></path>
<path d="M 712 361 L 739 281 L 610 256 Z" stroke="#d88c51" fill="#d88c51" style="animation-play-state:paused" ></path>
<path d="M 610 256 L 537 370 L 632 370 Z" stroke="#d5894f" fill="#d5894f" style="animation-play-state:paused" ></path>
<path d="M 537 370 L 622 443 L 632 370 Z" stroke="#d0854d" fill="#d0854d" style="animation-play-state:paused" ></path>
<path d="M 632 370 L 722 471 L 712 361 Z" stroke="#c57c48" fill="#c57c48" style="animation-play-state:paused" ></path>
<path d="M 610 256 L 522 255 L 537 370 Z" stroke="#cb8049" fill="#cb8049" style="animation-play-state:paused" ></path>
<path d="M 722 471 L 817 364 L 712 361 Z" stroke="#bf7845" fill="#bf7845" style="animation-play-state:paused" ></path>
<path d="M 712 361 L 817 364 L 739 281 Z" stroke="#cb814b" fill="#cb814b" style="animation-play-state:paused" ></path>
<path d="M 818 248 L 731 153 L 739 281 Z" stroke="#d0844c" fill="#d0844c" style="animation-play-state:paused" ></path>
<path d="M 739 281 L 731 153 L 610 256 Z" stroke="#cb8049" fill="#cb8049" style="animation-play-state:paused" ></path>
<path d="M 610 256 L 598 147 L 522 255 Z" stroke="#c07542" fill="#c07542" style="animation-play-state:paused" ></path>
<path d="M 817 364 L 818 248 L 739 281 Z" stroke="#cf854d" fill="#cf854d" style="animation-play-state:paused" ></path>
<path d="M 731 153 L 598 147 L 610 256 Z" stroke="#bf7441" fill="#bf7441" style="animation-play-state:paused" ></path>
<path d="M 622 443 L 722 471 L 632 370 Z" stroke="#c37b47" fill="#c37b47" style="animation-play-state:paused" ></path>
<path d="M 425 361 L 523 436 L 537 370 Z" stroke="#d5894f" fill="#d5894f" style="animation-play-state:paused" ></path>
<path d="M 537 370 L 523 436 L 622 443 Z" stroke="#d0864d" fill="#d0864d" style="animation-play-state:paused" ></path>
<path d="M 622 443 L 720 564 L 722 471 Z" stroke="#b67041" fill="#b67041" style="animation-play-state:paused" ></path>
<path d="M 598 147 L 521 145 L 522 255 Z" stroke="#b76c3c" fill="#b76c3c" style="animation-play-state:paused" ></path>
<path d="M 926 164 L 793 142 L 818 248 Z" stroke="#ce824a" fill="#ce824a" style="animation-play-state:paused" ></path>
<path d="M 818 248 L 793 142 L 731 153 Z" stroke="#c87d47" fill="#c87d47" style="animation-play-state:paused" ></path>
<path d="M 731 153 L 730 55 L 598 147 Z" stroke="#b56a3b" fill="#b56a3b" style="animation-play-state:paused" ></path>
<path d="M 722 471 L 835 483 L 817 364 Z" stroke="#b46f40" fill="#b46f40" style="animation-play-state:paused" ></path>
<path d="M 817 364 L 912 262 L 818 248 Z" stroke="#cb824b" fill="#cb824b" style="animation-play-state:paused" ></path>
<path d="M 400 251 L 425 361 L 522 255 Z" stroke="#c17542" fill="#c17542" style="animation-play-state:paused" ></path>
<path d="M 522 255 L 425 361 L 537 370 Z" stroke="#cb8049" fill="#cb8049" style="animation-play-state:paused" ></path>
<path d="M 427 152 L 400 251 L 522 255 Z" stroke="#b56a3b" fill="#b56a3b" style="animation-play-state:paused" ></path>
<path d="M 617 548 L 720 564 L 622 443 Z" stroke="#b67141" fill="#b67141" style="animation-play-state:paused" ></path>
<path d="M 722 471 L 812 550 L 835 483 Z" stroke="#a9663b" fill="#a9663b" style="animation-play-state:paused" ></path>
<path d="M 520 555 L 617 548 L 622 443 Z" stroke="#bf7745" fill="#bf7745" style="animation-play-state:paused" ></path>
<path d="M 793 142 L 730 55 L 731 153 Z" stroke="#b96e3d" fill="#b96e3d" style="animation-play-state:paused" ></path>
<path d="M 598 147 L 503 57 L 521 145 Z" stroke="#aa6034" fill="#aa6034" style="animation-play-state:paused" ></path>
<path d="M 903 364 L 912 262 L 817 364 Z" stroke="#c17946" fill="#c17946" style="animation-play-state:paused" ></path>
<path d="M 793 142 L 819 77 L 730 55 Z" stroke="#b66b3b" fill="#b66b3b" style="animation-play-state:paused" ></path>
<path d="M 912 454 L 903 364 L 817 364 Z" stroke="#b46f40" fill="#b46f40" style="animation-play-state:paused" ></path>
<path d="M 730 55 L 596 35 L 598 147 Z" stroke="#aa6034" fill="#aa6034" style="animation-play-state:paused" ></path>
<path d="M 521 145 L 427 152 L 522 255 Z" stroke="#b26839" fill="#b26839" style="animation-play-state:paused" ></path>
<path d="M 438 55 L 427 152 L 521 145 Z" stroke="#a45a30" fill="#a45a30" style="animation-play-state:paused" ></path>
<path d="M 425 361 L 423 445 L 523 436 Z" stroke="#d4884f" fill="#d4884f" style="animation-play-state:paused" ></path>
<path d="M 523 436 L 520 555 L 622 443 Z" stroke="#c77e49" fill="#c77e49" style="animation-play-state:paused" ></path>
<path d="M 344 361 L 423 445 L 425 361 Z" stroke="#cb7f49" fill="#cb7f49" style="animation-play-state:paused" ></path>
<path d="M 433 569 L 520 555 L 523 436 Z" stroke="#c9804a" fill="#c9804a" style="animation-play-state:paused" ></path>
<path d="M 735 650 L 812 550 L 720 564 Z" stroke="#a16037" fill="#a16037" style="animation-play-state:paused" ></path>
<path d="M 835 483 L 912 454 L 817 364 Z" stroke="#ae6a3d" fill="#ae6a3d" style="animation-play-state:paused" ></path>
<path d="M 904 567 L 912 454 L 835 483 Z" stroke="#9f5f36" fill="#9f5f36" style="animation-play-state:paused" ></path>
<path d="M 596 35 L 503 57 L 598 147 Z" stroke="#a45b31" fill="#a45b31" style="animation-play-state:paused" ></path>
<path d="M 926 164 L 819 77 L 793 142 Z" stroke="#c17643" fill="#c17643" style="animation-play-state:paused" ></path>
<path d="M 730 55 L 627 -35 L 596 35 Z" stroke="#9e552d" fill="#9e552d" style="animation-play-state:paused" ></path>
<path d="M 613 679 L 720 564 L 617 548 Z" stroke="#ad693d" fill="#ad693d" style="animation-play-state:paused" ></path>
<path d="M 720 564 L 812 550 L 722 471 Z" stroke="#aa673b" fill="#aa673b" style="animation-play-state:paused" ></path>
<path d="M 1020 273 L 926 164 L 912 262 Z" stroke="#d0864d" fill="#d0864d" style="animation-play-state:paused" ></path>
<path d="M 912 262 L 926 164 L 818 248 Z" stroke="#d78b51" fill="#d78b51" style="animation-play-state:paused" ></path>
<path d="M 1020 273 L 912 262 L 903 364 Z" stroke="#c27a46" fill="#c27a46" style="animation-play-state:paused" ></path>
<path d="M 344 162 L 331 279 L 400 251 Z" stroke="#af6437" fill="#af6437" style="animation-play-state:paused" ></path>
<path d="M 400 251 L 331 279 L 425 361 Z" stroke="#bc713f" fill="#bc713f" style="animation-play-state:paused" ></path>
<path d="M 344 162 L 400 251 L 427 152 Z" stroke="#aa6034" fill="#aa6034" style="animation-play-state:paused" ></path>
<path d="M 331 279 L 344 361 L 425 361 Z" stroke="#c07442" fill="#c07442" style="animation-play-state:paused" ></path>
<path d="M 423 445 L 433 569 L 523 436 Z" stroke="#d2874e" fill="#d2874e" style="animation-play-state:paused" ></path>
<path d="M 503 57 L 438 55 L 521 145 Z" stroke="#9f562e" fill="#9f562e" style="animation-play-state:paused" ></path>
<path d="M 710 -51 L 627 -35 L 730 55 Z" stroke="#9a512b" fill="#9a512b" style="animation-play-state:paused" ></path>
<path d="M 596 35 L 499 -50 L 503 57 Z" stroke="#954d28" fill="#954d28" style="animation-play-state:paused" ></path>
<path d="M 503 57 L 419 -32 L 438 55 Z" stroke="#914a26" fill="#914a26" style="animation-play-state:paused" ></path>
<path d="M 309 550 L 433 569 L 423 445 Z" stroke="#d68a50" fill="#d68a50" style="animation-play-state:paused" ></path>
<path d="M 534 673 L 613 679 L 617 548 Z" stroke="#b16d3f" fill="#b16d3f" style="animation-play-state:paused" ></path>
<path d="M 438 55 L 344 162 L 427 152 Z" stroke="#a0572e" fill="#a0572e" style="animation-play-state:paused" ></path>
<path d="M 331 279 L 238 270 L 344 361 Z" stroke="#b56a3b" fill="#b56a3b" style="animation-play-state:paused" ></path>
<path d="M 534 673 L 617 548 L 520 555 Z" stroke="#b97342" fill="#b97342" style="animation-play-state:paused" ></path>
<path d="M 838 682 L 904 567 L 812 550 Z" stroke="#945631" fill="#945631" style="animation-play-state:paused" ></path>
<path d="M 812 550 L 904 567 L 835 483 Z" stroke="#9e5d35" fill="#9e5d35" style="animation-play-state:paused" ></path>
<path d="M 1039 355 L 1020 273 L 903 364 Z" stroke="#b87242" fill="#b87242" style="animation-play-state:paused" ></path>
<path d="M 613 679 L 735 650 L 720 564 Z" stroke="#a56339" fill="#a56339" style="animation-play-state:paused" ></path>
<path d="M 926 164 L 930 78 L 819 77 Z" stroke="#c07442" fill="#c07442" style="animation-play-state:paused" ></path>
<path d="M 836 -29 L 710 -51 L 730 55 Z" stroke="#9f562e" fill="#9f562e" style="animation-play-state:paused" ></path>
<path d="M 836 -29 L 730 55 L 819 77 Z" stroke="#aa6034" fill="#aa6034" style="animation-play-state:paused" ></path>
<path d="M 309 550 L 330 472 L 207 472 Z" stroke="#cc8049" fill="#cc8049" style="animation-play-state:paused" ></path>
<path d="M 344 361 L 330 472 L 423 445 Z" stroke="#cc814a" fill="#cc814a" style="animation-play-state:paused" ></path>
<path d="M 1039 355 L 903 364 L 912 454 Z" stroke="#ae6a3d" fill="#ae6a3d" style="animation-play-state:paused" ></path>
<path d="M 926 164 L 1033 164 L 930 78 Z" stroke="#ca7f48" fill="#ca7f48" style="animation-play-state:paused" ></path>
<path d="M 1027 462 L 1039 355 L 912 454 Z" stroke="#a36238" fill="#a36238" style="animation-play-state:paused" ></path>
<path d="M 433 569 L 534 673 L 520 555 Z" stroke="#c07946" fill="#c07946" style="animation-play-state:paused" ></path>
<path d="M 928 -30 L 836 -29 L 819 77 Z" stroke="#a85e33" fill="#a85e33" style="animation-play-state:paused" ></path>
<path d="M 511 -137 L 499 -50 L 618 -158 Z" stroke="#803b1b" fill="#803b1b" style="animation-play-state:paused" ></path>
<path d="M 627 -35 L 499 -50 L 596 35 Z" stroke="#914926" fill="#914926" style="animation-play-state:paused" ></path>
<path d="M 438 55 L 296 56 L 344 162 Z" stroke="#964e28" fill="#964e28" style="animation-play-state:paused" ></path>
<path d="M 904 567 L 1027 462 L 912 454 Z" stroke="#9a5a34" fill="#9a5a34" style="animation-play-state:paused" ></path>
<path d="M 1020 273 L 1033 164 L 926 164 Z" stroke="#d58a50" fill="#d58a50" style="animation-play-state:paused" ></path>
<path d="M 822 752 L 838 682 L 735 650 Z" stroke="#925430" fill="#925430" style="animation-play-state:paused" ></path>
<path d="M 735 650 L 838 682 L 812 550 Z" stroke="#985933" fill="#985933" style="animation-play-state:paused" ></path>
<path d="M 904 567 L 1025 575 L 1027 462 Z" stroke="#8f522e" fill="#8f522e" style="animation-play-state:paused" ></path>
<path d="M 708 741 L 735 650 L 613 679 Z" stroke="#a06037" fill="#a06037" style="animation-play-state:paused" ></path>
<path d="M 433 569 L 403 641 L 534 673 Z" stroke="#c37b47" fill="#c37b47" style="animation-play-state:paused" ></path>
<path d="M 309 550 L 403 641 L 433 569 Z" stroke="#d0854d" fill="#d0854d" style="animation-play-state:paused" ></path>
<path d="M 207 472 L 330 472 L 344 361 Z" stroke="#c67a45" fill="#c67a45" style="animation-play-state:paused" ></path>
<path d="M 330 472 L 309 550 L 423 445 Z" stroke="#d3874e" fill="#d3874e" style="animation-play-state:paused" ></path>
<path d="M 234 170 L 238 270 L 344 162 Z" stroke="#a2582f" fill="#a2582f" style="animation-play-state:paused" ></path>
<path d="M 344 162 L 238 270 L 331 279 Z" stroke="#ab6135" fill="#ab6135" style="animation-play-state:paused" ></path>
<path d="M 499 -50 L 419 -32 L 503 57 Z" stroke="#8c4522" fill="#8c4522" style="animation-play-state:paused" ></path>
<path d="M 419 -32 L 296 56 L 438 55 Z" stroke="#8c4523" fill="#8c4523" style="animation-play-state:paused" ></path>
<path d="M 1032 -21 L 928 -30 L 930 78 Z" stroke="#ae6437" fill="#ae6437" style="animation-play-state:paused" ></path>
<path d="M 930 78 L 928 -30 L 819 77 Z" stroke="#b26739" fill="#b26739" style="animation-play-state:paused" ></path>
<path d="M 846 -136 L 726 -130 L 710 -51 Z" stroke="#8a4321" fill="#8a4321" style="animation-play-state:paused" ></path>
<path d="M 838 682 L 919 675 L 904 567 Z" stroke="#8b4f2d" fill="#8b4f2d" style="animation-play-state:paused" ></path>
<path d="M 618 752 L 708 741 L 613 679 Z" stroke="#a46238" fill="#a46238" style="animation-play-state:paused" ></path>
<path d="M 838 682 L 925 780 L 919 675 Z" stroke="#844a29" fill="#844a29" style="animation-play-state:paused" ></path>
<path d="M 618 752 L 613 679 L 534 673 Z" stroke="#ac693c" fill="#ac693c" style="animation-play-state:paused" ></path>
<path d="M 238 270 L 224 344 L 344 361 Z" stroke="#b56a3b" fill="#b56a3b" style="animation-play-state:paused" ></path>
<path d="M 1096 137 L 1024 62 L 1033 164 Z" stroke="#cc8049" fill="#cc8049" style="animation-play-state:paused" ></path>
<path d="M 1033 164 L 1024 62 L 930 78 Z" stroke="#c57945" fill="#c57945" style="animation-play-state:paused" ></path>
<path d="M 525 775 L 618 752 L 534 673 Z" stroke="#af6b3d" fill="#af6b3d" style="animation-play-state:paused" ></path>
<path d="M 1009 640 L 1025 575 L 904 567 Z" stroke="#874c2a" fill="#874c2a" style="animation-play-state:paused" ></path>
<path d="M 1138 382 L 1121 258 L 1039 355 Z" stroke="#af6b3e" fill="#af6b3e" style="animation-play-state:paused" ></path>
<path d="M 1039 355 L 1121 258 L 1020 273 Z" stroke="#ba7443" fill="#ba7443" style="animation-play-state:paused" ></path>
<path d="M 221 76 L 234 170 L 344 162 Z" stroke="#964e29" fill="#964e29" style="animation-play-state:paused" ></path>
<path d="M 238 270 L 132 256 L 224 344 Z" stroke="#a95f33" fill="#a95f33" style="animation-play-state:paused" ></path>
<path d="M 846 -136 L 710 -51 L 836 -29 Z" stroke="#934b27" fill="#934b27" style="animation-play-state:paused" ></path>
<path d="M 710 -51 L 618 -158 L 627 -35 Z" stroke="#894221" fill="#894221" style="animation-play-state:paused" ></path>
<path d="M 499 -50 L 511 -137 L 419 -32 Z" stroke="#7f391b" fill="#7f391b" style="animation-play-state:paused" ></path>
<path d="M 1138 382 L 1039 355 L 1027 462 Z" stroke="#a26137" fill="#a26137" style="animation-play-state:paused" ></path>
<path d="M 1020 273 L 1121 258 L 1033 164 Z" stroke="#ca804a" fill="#ca804a" style="animation-play-state:paused" ></path>
<path d="M 224 344 L 207 472 L 344 361 Z" stroke="#bd7240" fill="#bd7240" style="animation-play-state:paused" ></path>
<path d="M 309 550 L 322 657 L 403 641 Z" stroke="#d2874e" fill="#d2874e" style="animation-play-state:paused" ></path>
<path d="M 618 -158 L 499 -50 L 627 -35 Z" stroke="#843e1e" fill="#843e1e" style="animation-play-state:paused" ></path>
<path d="M 726 -130 L 618 -158 L 710 -51 Z" stroke="#843d1e" fill="#843d1e" style="animation-play-state:paused" ></path>
<path d="M 420 748 L 525 775 L 534 673 Z" stroke="#b87242" fill="#b87242" style="animation-play-state:paused" ></path>
<path d="M 928 -30 L 846 -136 L 836 -29 Z" stroke="#98502a" fill="#98502a" style="animation-play-state:paused" ></path>
<path d="M 942 -121 L 846 -136 L 928 -30 Z" stroke="#934b27" fill="#934b27" style="animation-play-state:paused" ></path>
<path d="M 618 752 L 822 752 L 708 741 Z" stroke="#995a33" fill="#995a33" style="animation-play-state:paused" ></path>
<path d="M 708 741 L 822 752 L 735 650 Z" stroke="#965732" fill="#965732" style="animation-play-state:paused" ></path>
<path d="M 1121 258 L 1096 137 L 1033 164 Z" stroke="#d3884f" fill="#d3884f" style="animation-play-state:paused" ></path>
<path d="M 225 579 L 322 657 L 309 550 Z" stroke="#d5894f" fill="#d5894f" style="animation-play-state:paused" ></path>
<path d="M 403 641 L 420 748 L 534 673 Z" stroke="#bf7845" fill="#bf7845" style="animation-play-state:paused" ></path>
<path d="M 1131 473 L 1138 382 L 1027 462 Z" stroke="#975832" fill="#975832" style="animation-play-state:paused" ></path>
<path d="M 1207 153 L 1116 52 L 1096 137 Z" stroke="#ce834b" fill="#ce834b" style="animation-play-state:paused" ></path>
<path d="M 243 -34 L 221 76 L 296 56 Z" stroke="#833d1d" fill="#833d1d" style="animation-play-state:paused" ></path>
<path d="M 296 56 L 221 76 L 344 162 Z" stroke="#924a26" fill="#924a26" style="animation-play-state:paused" ></path>
<path d="M 234 170 L 132 256 L 238 270 Z" stroke="#a0572e" fill="#a0572e" style="animation-play-state:paused" ></path>
<path d="M 303 -35 L 296 56 L 419 -32 Z" stroke="#833d1d" fill="#833d1d" style="animation-play-state:paused" ></path>
<path d="M 207 472 L 225 579 L 309 550 Z" stroke="#cb7f49" fill="#cb7f49" style="animation-play-state:paused" ></path>
<path d="M 407 -165 L 303 -35 L 419 -32 Z" stroke="#823c1c" fill="#823c1c" style="animation-play-state:paused" ></path>
<path d="M 919 675 L 1009 640 L 904 567 Z" stroke="#864b2a" fill="#864b2a" style="animation-play-state:paused" ></path>
<path d="M 1025 575 L 1131 473 L 1027 462 Z" stroke="#8d512e" fill="#8d512e" style="animation-play-state:paused" ></path>
<path d="M 1005 766 L 1009 640 L 919 675 Z" stroke="#7b4325" fill="#7b4325" style="animation-play-state:paused" ></path>
<path d="M 1134 572 L 1131 473 L 1025 575 Z" stroke="#834929" fill="#834929" style="animation-play-state:paused" ></path>
<path d="M 322 657 L 420 748 L 403 641 Z" stroke="#c9804a" fill="#c9804a" style="animation-play-state:paused" ></path>
<path d="M 1116 52 L 1032 -21 L 1024 62 Z" stroke="#b76d3c" fill="#b76d3c" style="animation-play-state:paused" ></path>
<path d="M 1024 62 L 1032 -21 L 930 78 Z" stroke="#b76c3c" fill="#b76c3c" style="animation-play-state:paused" ></path>
<path d="M 1032 -21 L 942 -121 L 928 -30 Z" stroke="#9f562e" fill="#9f562e" style="animation-play-state:paused" ></path>
<path d="M 846 -136 L 1014 -125 L 726 -130 Z" stroke="#894221" fill="#894221" style="animation-play-state:paused" ></path>
<path d="M 726 -130 L 1014 -125 L 618 -158 Z" stroke="#843d1e" fill="#843d1e" style="animation-play-state:paused" ></path>
<path d="M 618 -158 L 407 -165 L 511 -137 Z" stroke="#843f1d" fill="#843f1d" style="animation-play-state:paused" ></path>
<path d="M 511 -137 L 407 -165 L 419 -32 Z" stroke="#823d1c" fill="#823d1c" style="animation-play-state:paused" ></path>
<path d="M 100 148 L 132 256 L 234 170 Z" stroke="#954d28" fill="#954d28" style="animation-play-state:paused" ></path>
<path d="M 224 344 L 98 445 L 207 472 Z" stroke="#b76d3c" fill="#b76d3c" style="animation-play-state:paused" ></path>
<path d="M 207 472 L 136 575 L 225 579 Z" stroke="#c57a45" fill="#c57a45" style="animation-play-state:paused" ></path>
<path d="M 1207 153 L 1096 137 L 1121 258 Z" stroke="#d1864e" fill="#d1864e" style="animation-play-state:paused" ></path>
<path d="M 1096 137 L 1116 52 L 1024 62 Z" stroke="#c57945" fill="#c57945" style="animation-play-state:paused" ></path>
<path d="M 1032 -21 L 1014 -125 L 942 -121 Z" stroke="#99502a" fill="#99502a" style="animation-play-state:paused" ></path>
<path d="M 822 752 L 925 780 L 838 682 Z" stroke="#874c2b" fill="#874c2b" style="animation-play-state:paused" ></path>
<path d="M 618 752 L 925 780 L 822 752 Z" stroke="#8f522f" fill="#8f522f" style="animation-play-state:paused" ></path>
<path d="M 525 775 L 925 780 L 618 752 Z" stroke="#9c5c35" fill="#9c5c35" style="animation-play-state:paused" ></path>
<path d="M 303 -35 L 243 -34 L 296 56 Z" stroke="#7f391b" fill="#7f391b" style="animation-play-state:paused" ></path>
<path d="M 221 76 L 100 148 L 234 170 Z" stroke="#8e4724" fill="#8e4724" style="animation-play-state:paused" ></path>
<path d="M 222 -155 L 243 -34 L 303 -35 Z" stroke="#84401d" fill="#84401d" style="animation-play-state:paused" ></path>
<path d="M 1137 677 L 1134 572 L 1025 575 Z" stroke="#784023" fill="#784023" style="animation-play-state:paused" ></path>
<path d="M 1217 367 L 1219 264 L 1138 382 Z" stroke="#a8653a" fill="#a8653a" style="animation-play-state:paused" ></path>
<path d="M 1137 677 L 1025 575 L 1009 640 Z" stroke="#794124" fill="#794124" style="animation-play-state:paused" ></path>
<path d="M 132 256 L 101 361 L 224 344 Z" stroke="#a85e33" fill="#a85e33" style="animation-play-state:paused" ></path>
<path d="M 225 579 L 248 661 L 322 657 Z" stroke="#d5894f" fill="#d5894f" style="animation-play-state:paused" ></path>
<path d="M 322 657 L 315 759 L 420 748 Z" stroke="#cb814b" fill="#cb814b" style="animation-play-state:paused" ></path>
<path d="M 105 661 L 248 661 L 225 579 Z" stroke="#cc814a" fill="#cc814a" style="animation-play-state:paused" ></path>
<path d="M 420 748 L 315 759 L 525 775 Z" stroke="#c07946" fill="#c07946" style="animation-play-state:paused" ></path>
<path d="M 525 775 L 25 778 L 925 780 Z" stroke="#b67141" fill="#b67141" style="animation-play-state:paused" ></path>
<path d="M 248 661 L 315 759 L 322 657 Z" stroke="#d4894f" fill="#d4894f" style="animation-play-state:paused" ></path>
<path d="M 1217 367 L 1138 382 L 1215 444 Z" stroke="#995a33" fill="#995a33" style="animation-play-state:paused" ></path>
<path d="M 1138 382 L 1219 264 L 1121 258 Z" stroke="#b26d3f" fill="#b26d3f" style="animation-play-state:paused" ></path>
<path d="M 101 361 L 98 445 L 224 344 Z" stroke="#af6537" fill="#af6537" style="animation-play-state:paused" ></path>
<path d="M 1215 444 L 1138 382 L 1131 473 Z" stroke="#935530" fill="#935530" style="animation-play-state:paused" ></path>
<path d="M 925 780 L 1005 766 L 919 675 Z" stroke="#7c4325" fill="#7c4325" style="animation-play-state:paused" ></path>
<path d="M 119 37 L 100 148 L 221 76 Z" stroke="#843d1e" fill="#843d1e" style="animation-play-state:paused" ></path>
<path d="M 12 259 L 37 387 L 101 361 Z" stroke="#a0562e" fill="#a0562e" style="animation-play-state:paused" ></path>
<path d="M 1219 264 L 1207 153 L 1121 258 Z" stroke="#c47c47" fill="#c47c47" style="animation-play-state:paused" ></path>
<path d="M 1119 -27 L 1014 -125 L 1032 -21 Z" stroke="#a35930" fill="#a35930" style="animation-play-state:paused" ></path>
<path d="M 1201 42 L 1207 153 L 1315 64 Z" stroke="#cc8049" fill="#cc8049" style="animation-play-state:paused" ></path>
<path d="M 1237 586 L 1131 473 L 1134 572 Z" stroke="#7c4425" fill="#7c4425" style="animation-play-state:paused" ></path>
<path d="M 1237 586 L 1215 444 L 1131 473 Z" stroke="#824828" fill="#824828" style="animation-play-state:paused" ></path>
<path d="M 1119 -27 L 1032 -21 L 1116 52 Z" stroke="#b26739" fill="#b26739" style="animation-play-state:paused" ></path>
<path d="M 942 -121 L 1014 -125 L 846 -136 Z" stroke="#8d4623" fill="#8d4623" style="animation-play-state:paused" ></path>
<path d="M 618 -158 L 319 -163 L 407 -165 Z" stroke="#86421d" fill="#86421d" style="animation-play-state:paused" ></path>
<path d="M 407 -165 L 319 -163 L 303 -35 Z" stroke="#85411d" fill="#85411d" style="animation-play-state:paused" ></path>
<path d="M 243 -34 L 119 37 L 221 76 Z" stroke="#803a1b" fill="#803a1b" style="animation-play-state:paused" ></path>
<path d="M 1201 42 L 1119 -27 L 1116 52 Z" stroke="#b96e3e" fill="#b96e3e" style="animation-play-state:paused" ></path>
<path d="M 98 445 L 136 575 L 207 472 Z" stroke="#bc713f" fill="#bc713f" style="animation-play-state:paused" ></path>
<path d="M 1103 742 L 1137 677 L 1009 640 Z" stroke="#703b22" fill="#703b22" style="animation-play-state:paused" ></path>
<path d="M 120 -25 L 119 37 L 243 -34 Z" stroke="#833e1c" fill="#833e1c" style="animation-play-state:paused" ></path>
<path d="M 1320 264 L 1207 153 L 1219 264 Z" stroke="#c07846" fill="#c07846" style="animation-play-state:paused" ></path>
<path d="M 1207 153 L 1201 42 L 1116 52 Z" stroke="#c97d47" fill="#c97d47" style="animation-play-state:paused" ></path>
<path d="M 1119 -27 L 1123 -124 L 1014 -125 Z" stroke="#9c532c" fill="#9c532c" style="animation-play-state:paused" ></path>
<path d="M 107 742 L 227 773 L 248 661 Z" stroke="#d1854c" fill="#d1854c" style="animation-play-state:paused" ></path>
<path d="M 248 661 L 227 773 L 315 759 Z" stroke="#d68b50" fill="#d68b50" style="animation-play-state:paused" ></path>
<path d="M 315 759 L 25 778 L 525 775 Z" stroke="#d2874e" fill="#d2874e" style="animation-play-state:paused" ></path>
<path d="M 101 361 L 37 387 L 98 445 Z" stroke="#aa6034" fill="#aa6034" style="animation-play-state:paused" ></path>
<path d="M 98 445 L 9 571 L 136 575 Z" stroke="#b86d3d" fill="#b86d3d" style="animation-play-state:paused" ></path>
<path d="M 136 575 L 105 661 L 225 579 Z" stroke="#c67b46" fill="#c67b46" style="animation-play-state:paused" ></path>
<path d="M 12 259 L 101 361 L 132 256 Z" stroke="#9d542c" fill="#9d542c" style="animation-play-state:paused" ></path>
<path d="M 12 259 L 132 256 L 100 148 Z" stroke="#934b26" fill="#934b26" style="animation-play-state:paused" ></path>
<path d="M 20 156 L 12 259 L 100 148 Z" stroke="#8a4321" fill="#8a4321" style="animation-play-state:paused" ></path>
<path d="M 1215 650 L 1237 586 L 1134 572 Z" stroke="#6f3b22" fill="#6f3b22" style="animation-play-state:paused" ></path>
<path d="M 1305 465 L 1310 341 L 1217 367 Z" stroke="#955731" fill="#955731" style="animation-play-state:paused" ></path>
<path d="M 1217 367 L 1310 341 L 1219 264 Z" stroke="#a8653a" fill="#a8653a" style="animation-play-state:paused" ></path>
<path d="M 222 -155 L 120 -25 L 243 -34 Z" stroke="#85421d" fill="#85421d" style="animation-play-state:paused" ></path>
<path d="M -3 58 L 20 156 L 100 148 Z" stroke="#7f391b" fill="#7f391b" style="animation-play-state:paused" ></path>
<path d="M 1005 766 L 1103 742 L 1009 640 Z" stroke="#723d23" fill="#723d23" style="animation-play-state:paused" ></path>
<path d="M 1137 677 L 1215 650 L 1134 572 Z" stroke="#6e3a22" fill="#6e3a22" style="animation-play-state:paused" ></path>
<path d="M 925 780 L 1103 742 L 1005 766 Z" stroke="#733d23" fill="#733d23" style="animation-play-state:paused" ></path>
<path d="M 9 571 L 105 661 L 136 575 Z" stroke="#bd7240" fill="#bd7240" style="animation-play-state:paused" ></path>
<path d="M 319 -163 L 222 -155 L 303 -35 Z" stroke="#86431e" fill="#86431e" style="animation-play-state:paused" ></path>
<path d="M 1218 -57 L 1123 -124 L 1119 -27 Z" stroke="#a45a30" fill="#a45a30" style="animation-play-state:paused" ></path>
<path d="M 1014 -125 L 1616 -152 L 618 -158 Z" stroke="#8f4824" fill="#8f4824" style="animation-play-state:paused" ></path>
<path d="M 1222 757 L 1215 650 L 1137 677 Z" stroke="#623320" fill="#623320" style="animation-play-state:paused" ></path>
<path d="M 1305 465 L 1215 444 L 1237 586 Z" stroke="#7e4526" fill="#7e4526" style="animation-play-state:paused" ></path>
<path d="M 1305 465 L 1217 367 L 1215 444 Z" stroke="#8f522e" fill="#8f522e" style="animation-play-state:paused" ></path>
<path d="M 1310 341 L 1320 264 L 1219 264 Z" stroke="#ae6a3d" fill="#ae6a3d" style="animation-play-state:paused" ></path>
<path d="M 1201 42 L 1218 -57 L 1119 -27 Z" stroke="#b26739" fill="#b26739" style="animation-play-state:paused" ></path>
<path d="M 1318 -39 L 1218 -57 L 1201 42 Z" stroke="#b3693a" fill="#b3693a" style="animation-play-state:paused" ></path>
<path d="M -70 359 L 11 444 L 37 387 Z" stroke="#a1572f" fill="#a1572f" style="animation-play-state:paused" ></path>
<path d="M 37 387 L 11 444 L 98 445 Z" stroke="#aa6034" fill="#aa6034" style="animation-play-state:paused" ></path>
<path d="M -3 58 L 100 148 L 119 37 Z" stroke="#803a1b" fill="#803a1b" style="animation-play-state:paused" ></path>
<path d="M 12 259 L -70 359 L 37 387 Z" stroke="#99512a" fill="#99512a" style="animation-play-state:paused" ></path>
<path d="M 1328 564 L 1305 465 L 1237 586 Z" stroke="#733d23" fill="#733d23" style="animation-play-state:paused" ></path>
<path d="M 1402 159 L 1341 170 L 1421 256 Z" stroke="#c37b47" fill="#c37b47" style="animation-play-state:paused" ></path>
<path d="M 11 444 L 9 571 L 98 445 Z" stroke="#af6537" fill="#af6537" style="animation-play-state:paused" ></path>
<path d="M 1320 264 L 1341 170 L 1207 153 Z" stroke="#c67e49" fill="#c67e49" style="animation-play-state:paused" ></path>
<path d="M 1421 256 L 1320 264 L 1310 341 Z" stroke="#ac693c" fill="#ac693c" style="animation-play-state:paused" ></path>
<path d="M 18 -44 L 119 37 L 120 -25 Z" stroke="#85411d" fill="#85411d" style="animation-play-state:paused" ></path>
<path d="M 18 -44 L -3 58 L 119 37 Z" stroke="#84401d" fill="#84401d" style="animation-play-state:paused" ></path>
<path d="M 25 778 L 107 742 L 105 661 Z" stroke="#c37743" fill="#c37743" style="animation-play-state:paused" ></path>
<path d="M 105 661 L 107 742 L 248 661 Z" stroke="#ca7f48" fill="#ca7f48" style="animation-play-state:paused" ></path>
<path d="M 1341 170 L 1315 64 L 1207 153 Z" stroke="#d88c51" fill="#d88c51" style="animation-play-state:paused" ></path>
<path d="M 319 -163 L 121 -168 L 222 -155 Z" stroke="#8a491f" fill="#8a491f" style="animation-play-state:paused" ></path>
<path d="M 222 -155 L 121 -168 L 120 -25 Z" stroke="#89471f" fill="#89471f" style="animation-play-state:paused" ></path>
<path d="M 618 -158 L 121 -168 L 319 -163 Z" stroke="#88451e" fill="#88451e" style="animation-play-state:paused" ></path>
<path d="M 30 -137 L 18 -44 L 120 -25 Z" stroke="#89461f" fill="#89461f" style="animation-play-state:paused" ></path>
<path d="M 925 780 L 1222 757 L 1103 742 Z" stroke="#6a3822" fill="#6a3822" style="animation-play-state:paused" ></path>
<path d="M 1103 742 L 1222 757 L 1137 677 Z" stroke="#643421" fill="#643421" style="animation-play-state:paused" ></path>
<path d="M 1302 656 L 1328 564 L 1237 586 Z" stroke="#673621" fill="#673621" style="animation-play-state:paused" ></path>
<path d="M 1218 -57 L 1218 -122 L 1123 -124 Z" stroke="#9d542d" fill="#9d542d" style="animation-play-state:paused" ></path>
<path d="M 1123 -124 L 1218 -122 L 1014 -125 Z" stroke="#964d28" fill="#964d28" style="animation-play-state:paused" ></path>
<path d="M 1318 -39 L 1218 -122 L 1218 -57 Z" stroke="#a65c32" fill="#a65c32" style="animation-play-state:paused" ></path>
<path d="M 1302 656 L 1237 586 L 1215 650 Z" stroke="#653521" fill="#653521" style="animation-play-state:paused" ></path>
<path d="M 1305 465 L 1432 379 L 1310 341 Z" stroke="#91532f" fill="#91532f" style="animation-play-state:paused" ></path>
<path d="M -73 552 L -2 658 L 9 571 Z" stroke="#b06638" fill="#b06638" style="animation-play-state:paused" ></path>
<path d="M 9 571 L -2 658 L 105 661 Z" stroke="#ba6f3e" fill="#ba6f3e" style="animation-play-state:paused" ></path>
<path d="M -73 552 L 9 571 L 11 444 Z" stroke="#ac6235" fill="#ac6235" style="animation-play-state:paused" ></path>
<path d="M -73 162 L -82 277 L 20 156 Z" stroke="#833d1d" fill="#833d1d" style="animation-play-state:paused" ></path>
<path d="M 20 156 L -82 277 L 12 259 Z" stroke="#8b4322" fill="#8b4322" style="animation-play-state:paused" ></path>
<path d="M -73 162 L 20 156 L -80 66 Z" stroke="#813c1c" fill="#813c1c" style="animation-play-state:paused" ></path>
<path d="M -82 277 L -70 359 L 12 259 Z" stroke="#914925" fill="#914925" style="animation-play-state:paused" ></path>
<path d="M 1222 757 L 1302 656 L 1215 650 Z" stroke="#5d3020" fill="#5d3020" style="animation-play-state:paused" ></path>
<path d="M 1435 -36 L 1318 -39 L 1315 64 Z" stroke="#ba6f3e" fill="#ba6f3e" style="animation-play-state:paused" ></path>
<path d="M 1315 64 L 1318 -39 L 1201 42 Z" stroke="#be7340" fill="#be7340" style="animation-play-state:paused" ></path>
<path d="M -70 359 L -93 444 L 11 444 Z" stroke="#9e552d" fill="#9e552d" style="animation-play-state:paused" ></path>
<path d="M -80 66 L 20 156 L -3 58 Z" stroke="#823d1c" fill="#823d1c" style="animation-play-state:paused" ></path>
<path d="M -82 277 L -166 261 L -70 359 Z" stroke="#8b4322" fill="#8b4322" style="animation-play-state:paused" ></path>
<path d="M -70 359 L -173 452 L -93 444 Z" stroke="#974f29" fill="#974f29" style="animation-play-state:paused" ></path>
<path d="M 121 -168 L 30 -137 L 120 -25 Z" stroke="#8a491f" fill="#8a491f" style="animation-play-state:paused" ></path>
<path d="M -93 -42 L -80 66 L -3 58 Z" stroke="#87431e" fill="#87431e" style="animation-play-state:paused" ></path>
<path d="M 1419 456 L 1305 465 L 1427 565 Z" stroke="#764023" fill="#764023" style="animation-play-state:paused" ></path>
<path d="M 1419 456 L 1432 379 L 1305 465 Z" stroke="#854b2a" fill="#854b2a" style="animation-play-state:paused" ></path>
<path d="M 1341 170 L 1402 159 L 1315 64 Z" stroke="#d58a50" fill="#d58a50" style="animation-play-state:paused" ></path>
<path d="M 1421 256 L 1341 170 L 1320 264 Z" stroke="#bb7443" fill="#bb7443" style="animation-play-state:paused" ></path>
<path d="M 1432 379 L 1421 256 L 1310 341 Z" stroke="#a16037" fill="#a16037" style="animation-play-state:paused" ></path>
<path d="M -68 756 L 25 778 L -2 658 Z" stroke="#b76d3c" fill="#b76d3c" style="animation-play-state:paused" ></path>
<path d="M -2 658 L 25 778 L 105 661 Z" stroke="#bd7240" fill="#bd7240" style="animation-play-state:paused" ></path>
<path d="M 107 742 L 25 778 L 227 773 Z" stroke="#c97d47" fill="#c97d47" style="animation-play-state:paused" ></path>
<path d="M 227 773 L 25 778 L 315 759 Z" stroke="#d1854d" fill="#d1854d" style="animation-play-state:paused" ></path>
<path d="M -93 444 L -73 552 L 11 444 Z" stroke="#a45b31" fill="#a45b31" style="animation-play-state:paused" ></path>
<path d="M -93 -42 L -3 58 L 18 -44 Z" stroke="#88451e" fill="#88451e" style="animation-play-state:paused" ></path>
<path d="M 1427 565 L 1305 465 L 1328 564 Z" stroke="#703c22" fill="#703c22" style="animation-play-state:paused" ></path>
<path d="M 1432 379 L 1521 353 L 1421 256 Z" stroke="#9d5d35" fill="#9d5d35" style="animation-play-state:paused" ></path>
<path d="M 1430 667 L 1328 564 L 1302 656 Z" stroke="#5c2f1f" fill="#5c2f1f" style="animation-play-state:paused" ></path>
<path d="M 1430 667 L 1427 565 L 1328 564 Z" stroke="#5f3120" fill="#5f3120" style="animation-play-state:paused" ></path>
<path d="M 1516 45 L 1412 55 L 1402 159 Z" stroke="#d2864d" fill="#d2864d" style="animation-play-state:paused" ></path>
<path d="M 1402 159 L 1412 55 L 1315 64 Z" stroke="#d2864d" fill="#d2864d" style="animation-play-state:paused" ></path>
<path d="M 1318 -39 L 1330 -136 L 1218 -122 Z" stroke="#a1582f" fill="#a1582f" style="animation-play-state:paused" ></path>
<path d="M 1435 -36 L 1330 -136 L 1318 -39 Z" stroke="#aa6034" fill="#aa6034" style="animation-play-state:paused" ></path>
<path d="M -73 552 L -74 644 L -2 658 Z" stroke="#af6437" fill="#af6437" style="animation-play-state:paused" ></path>
<path d="M -164 572 L -74 644 L -73 552 Z" stroke="#a65d32" fill="#a65d32" style="animation-play-state:paused" ></path>
<path d="M -173 452 L -73 552 L -93 444 Z" stroke="#9d542d" fill="#9d542d" style="animation-play-state:paused" ></path>
<path d="M 925 780 L 1324 786 L 1222 757 Z" stroke="#603220" fill="#603220" style="animation-play-state:paused" ></path>
<path d="M 1222 757 L 1324 786 L 1302 656 Z" stroke="#542b1e" fill="#542b1e" style="animation-play-state:paused" ></path>
<path d="M -271 783 L 1324 786 L 925 780 Z" stroke="#a05f36" fill="#a05f36" style="animation-play-state:paused" ></path>
<path d="M -67 -149 L -93 -42 L 18 -44 Z" stroke="#8c4b20" fill="#8c4b20" style="animation-play-state:paused" ></path>
<path d="M -182 154 L -166 261 L -73 162 Z" stroke="#813c1c" fill="#813c1c" style="animation-play-state:paused" ></path>
<path d="M -73 162 L -166 261 L -82 277 Z" stroke="#823c1d" fill="#823c1d" style="animation-play-state:paused" ></path>
<path d="M -182 154 L -73 162 L -189 56 Z" stroke="#84401d" fill="#84401d" style="animation-play-state:paused" ></path>
<path d="M 1324 786 L 1430 667 L 1302 656 Z" stroke="#50291d" fill="#50291d" style="animation-play-state:paused" ></path>
<path d="M 1529 479 L 1521 353 L 1419 456 Z" stroke="#824828" fill="#824828" style="animation-play-state:paused" ></path>
<path d="M -189 56 L -73 162 L -80 66 Z" stroke="#85411d" fill="#85411d" style="animation-play-state:paused" ></path>
<path d="M -273 370 L -185 342 L -289 247 Z" stroke="#7f3a1b" fill="#7f3a1b" style="animation-play-state:paused" ></path>
<path d="M -166 261 L -185 342 L -70 359 Z" stroke="#8a4221" fill="#8a4221" style="animation-play-state:paused" ></path>
<path d="M 1516 45 L 1435 -36 L 1412 55 Z" stroke="#c27743" fill="#c27743" style="animation-play-state:paused" ></path>
<path d="M 1412 55 L 1435 -36 L 1315 64 Z" stroke="#c27743" fill="#c27743" style="animation-play-state:paused" ></path>
<path d="M 1542 186 L 1402 159 L 1421 256 Z" stroke="#c07845" fill="#c07845" style="animation-play-state:paused" ></path>
<path d="M -185 342 L -173 452 L -70 359 Z" stroke="#904925" fill="#904925" style="animation-play-state:paused" ></path>
<path d="M 30 -137 L -67 -149 L 18 -44 Z" stroke="#8d4c20" fill="#8d4c20" style="animation-play-state:paused" ></path>
<path d="M -185 -42 L -189 56 L -80 66 Z" stroke="#89471f" fill="#89471f" style="animation-play-state:paused" ></path>
<path d="M 121 -168 L -67 -149 L 30 -137 Z" stroke="#8e4e21" fill="#8e4e21" style="animation-play-state:paused" ></path>
<path d="M 1529 479 L 1419 456 L 1427 565 Z" stroke="#723d22" fill="#723d22" style="animation-play-state:paused" ></path>
<path d="M 1419 456 L 1521 353 L 1432 379 Z" stroke="#8c502d" fill="#8c502d" style="animation-play-state:paused" ></path>
<path d="M -74 644 L -68 756 L -2 658 Z" stroke="#b26739" fill="#b26739" style="animation-play-state:paused" ></path>
<path d="M -158 656 L -68 756 L -74 644 Z" stroke="#ac6235" fill="#ac6235" style="animation-play-state:paused" ></path>
<path d="M -173 452 L -164 572 L -73 552 Z" stroke="#9e552d" fill="#9e552d" style="animation-play-state:paused" ></path>
<path d="M 1521 353 L 1530 246 L 1421 256 Z" stroke="#a8653a" fill="#a8653a" style="animation-play-state:paused" ></path>
<path d="M -185 -42 L -80 66 L -93 -42 Z" stroke="#8a481f" fill="#8a481f" style="animation-play-state:paused" ></path>
<path d="M -289 247 L -185 342 L -166 261 Z" stroke="#803a1b" fill="#803a1b" style="animation-play-state:paused" ></path>
<path d="M 1324 786 L 1422 764 L 1430 667 Z" stroke="#47241b" fill="#47241b" style="animation-play-state:paused" ></path>
<path d="M 1524 565 L 1529 479 L 1427 565 Z" stroke="#683621" fill="#683621" style="animation-play-state:paused" ></path>
<path d="M 1524 565 L 1427 565 L 1430 667 Z" stroke="#5b2f1f" fill="#5b2f1f" style="animation-play-state:paused" ></path>
<path d="M 1521 353 L 1623 238 L 1530 246 Z" stroke="#a8653a" fill="#a8653a" style="animation-play-state:paused" ></path>
<path d="M 1519 -137 L 1420 -142 L 1435 -36 Z" stroke="#a35930" fill="#a35930" style="animation-play-state:paused" ></path>
<path d="M 1435 -36 L 1420 -142 L 1330 -136 Z" stroke="#a2582f" fill="#a2582f" style="animation-play-state:paused" ></path>
<path d="M 1330 -136 L 1420 -142 L 1218 -122 Z" stroke="#99512a" fill="#99512a" style="animation-play-state:paused" ></path>
<path d="M 1218 -122 L 1616 -152 L 1014 -125 Z" stroke="#98502a" fill="#98502a" style="animation-play-state:paused" ></path>
<path d="M 1530 246 L 1542 186 L 1421 256 Z" stroke="#b77141" fill="#b77141" style="animation-play-state:paused" ></path>
<path d="M 1623 238 L 1542 186 L 1530 246 Z" stroke="#b77141" fill="#b77141" style="animation-play-state:paused" ></path>
<path d="M 1542 186 L 1516 45 L 1402 159 Z" stroke="#d2874e" fill="#d2874e" style="animation-play-state:paused" ></path>
<path d="M -174 -128 L -185 -42 L -93 -42 Z" stroke="#8e4e21" fill="#8e4e21" style="animation-play-state:paused" ></path>
<path d="M -164 572 L -158 656 L -74 644 Z" stroke="#a55b31" fill="#a55b31" style="animation-play-state:paused" ></path>
<path d="M -286 637 L -158 656 L -164 572 Z" stroke="#9c542c" fill="#9c542c" style="animation-play-state:paused" ></path>
<path d="M -267 563 L -164 572 L -173 452 Z" stroke="#974e29" fill="#974e29" style="animation-play-state:paused" ></path>
<path d="M 1521 656 L 1524 565 L 1430 667 Z" stroke="#522a1d" fill="#522a1d" style="animation-play-state:paused" ></path>
<path d="M 1626 373 L 1623 238 L 1521 353 Z" stroke="#9c5c35" fill="#9c5c35" style="animation-play-state:paused" ></path>
<path d="M -289 247 L -166 261 L -292 162 Z" stroke="#833f1d" fill="#833f1d" style="animation-play-state:paused" ></path>
<path d="M -185 342 L -273 370 L -173 452 Z" stroke="#894221" fill="#894221" style="animation-play-state:paused" ></path>
<path d="M -166 261 L -182 154 L -292 162 Z" stroke="#833f1d" fill="#833f1d" style="animation-play-state:paused" ></path>
<path d="M -67 -149 L -174 -128 L -93 -42 Z" stroke="#8f4f21" fill="#8f4f21" style="animation-play-state:paused" ></path>
<path d="M -292 162 L -182 154 L -275 53 Z" stroke="#88451e" fill="#88451e" style="animation-play-state:paused" ></path>
<path d="M -275 -140 L -174 -128 L -67 -149 Z" stroke="#925423" fill="#925423" style="animation-play-state:paused" ></path>
<path d="M 1519 770 L 1521 656 L 1430 667 Z" stroke="#43221a" fill="#43221a" style="animation-play-state:paused" ></path>
<path d="M 1616 56 L 1540 -36 L 1516 45 Z" stroke="#c47844" fill="#c47844" style="animation-play-state:paused" ></path>
<path d="M 1516 45 L 1540 -36 L 1435 -36 Z" stroke="#bb703f" fill="#bb703f" style="animation-play-state:paused" ></path>
<path d="M -182 154 L -189 56 L -275 53 Z" stroke="#88461e" fill="#88461e" style="animation-play-state:paused" ></path>
<path d="M -275 53 L -189 56 L -291 -43 Z" stroke="#8c4b20" fill="#8c4b20" style="animation-play-state:paused" ></path>
<path d="M -271 783 L -175 757 L -158 656 Z" stroke="#a1572f" fill="#a1572f" style="animation-play-state:paused" ></path>
<path d="M -158 656 L -175 757 L -68 756 Z" stroke="#a95f33" fill="#a95f33" style="animation-play-state:paused" ></path>
<path d="M -68 756 L -175 757 L 25 778 Z" stroke="#b16738" fill="#b16738" style="animation-play-state:paused" ></path>
<path d="M 25 778 L -271 783 L 925 780 Z" stroke="#d68a50" fill="#d68a50" style="animation-play-state:paused" ></path>
<path d="M -289 247 L -297 445 L -273 370 Z" stroke="#7f3a1b" fill="#7f3a1b" style="animation-play-state:paused" ></path>
<path d="M -273 370 L -297 445 L -173 452 Z" stroke="#894221" fill="#894221" style="animation-play-state:paused" ></path>
<path d="M 1606 462 L 1529 479 L 1601 539 Z" stroke="#6f3b22" fill="#6f3b22" style="animation-play-state:paused" ></path>
<path d="M 1606 462 L 1521 353 L 1529 479 Z" stroke="#804727" fill="#804727" style="animation-play-state:paused" ></path>
<path d="M 1542 186 L 1616 56 L 1516 45 Z" stroke="#d68a50" fill="#d68a50" style="animation-play-state:paused" ></path>
<path d="M -292 162 L -291 -43 L -289 247 Z" stroke="#89471f" fill="#89471f" style="animation-play-state:paused" ></path>
<path d="M -291 -43 L -189 56 L -185 -42 Z" stroke="#8d4c20" fill="#8d4c20" style="animation-play-state:paused" ></path>
<path d="M -297 445 L -267 563 L -173 452 Z" stroke="#8e4724" fill="#8e4724" style="animation-play-state:paused" ></path>
<path d="M 1601 539 L 1529 479 L 1524 565 Z" stroke="#683621" fill="#683621" style="animation-play-state:paused" ></path>
<path d="M 1422 764 L 1519 770 L 1430 667 Z" stroke="#402119" fill="#402119" style="animation-play-state:paused" ></path>
<path d="M 1601 637 L 1601 539 L 1524 565 Z" stroke="#5a2e1f" fill="#5a2e1f" style="animation-play-state:paused" ></path>
<path d="M 1324 786 L 1519 770 L 1422 764 Z" stroke="#402019" fill="#402019" style="animation-play-state:paused" ></path>
<path d="M 1616 -49 L 1519 -137 L 1540 -36 Z" stroke="#ac6235" fill="#ac6235" style="animation-play-state:paused" ></path>
<path d="M 1540 -36 L 1519 -137 L 1435 -36 Z" stroke="#ac6236" fill="#ac6236" style="animation-play-state:paused" ></path>
<path d="M 1606 462 L 1626 373 L 1521 353 Z" stroke="#884d2b" fill="#884d2b" style="animation-play-state:paused" ></path>
<path d="M 1601 539 L 1626 373 L 1606 462 Z" stroke="#784123" fill="#784123" style="animation-play-state:paused" ></path>
<path d="M 1626 373 L 1636 158 L 1623 238 Z" stroke="#ad6a3d" fill="#ad6a3d" style="animation-play-state:paused" ></path>
<path d="M 1623 238 L 1636 158 L 1542 186 Z" stroke="#bf7745" fill="#bf7745" style="animation-play-state:paused" ></path>
<path d="M 1601 637 L 1524 565 L 1521 656 Z" stroke="#51291d" fill="#51291d" style="animation-play-state:paused" ></path>
<path d="M 1636 158 L 1616 56 L 1542 186 Z" stroke="#cf854d" fill="#cf854d" style="animation-play-state:paused" ></path>
<path d="M -297 445 L -286 637 L -267 563 Z" stroke="#8f4724" fill="#8f4724" style="animation-play-state:paused" ></path>
<path d="M -267 563 L -286 637 L -164 572 Z" stroke="#964e29" fill="#964e29" style="animation-play-state:paused" ></path>
<path d="M -174 -128 L -291 -43 L -185 -42 Z" stroke="#905122" fill="#905122" style="animation-play-state:paused" ></path>
<path d="M -275 53 L -291 -43 L -292 162 Z" stroke="#8c4a20" fill="#8c4a20" style="animation-play-state:paused" ></path>
<path d="M -289 247 L -291 -43 L -297 445 Z" stroke="#85411d" fill="#85411d" style="animation-play-state:paused" ></path>
<path d="M 1607 745 L 1601 637 L 1521 656 Z" stroke="#42211a" fill="#42211a" style="animation-play-state:paused" ></path>
<path d="M 1601 539 L 1601 637 L 1626 373 Z" stroke="#693721" fill="#693721" style="animation-play-state:paused" ></path>
<path d="M 1616 56 L 1616 -49 L 1540 -36 Z" stroke="#bc713f" fill="#bc713f" style="animation-play-state:paused" ></path>
<path d="M -286 637 L -271 783 L -158 656 Z" stroke="#9b522b" fill="#9b522b" style="animation-play-state:paused" ></path>
<path d="M -175 757 L -271 783 L 25 778 Z" stroke="#a95f33" fill="#a95f33" style="animation-play-state:paused" ></path>
<path d="M 121 -168 L -275 -140 L -67 -149 Z" stroke="#915222" fill="#915222" style="animation-play-state:paused" ></path>
<path d="M -174 -128 L -275 -140 L -291 -43 Z" stroke="#935423" fill="#935423" style="animation-play-state:paused" ></path>
<path d="M -291 -43 L -275 -140 L -297 445 Z" stroke="#8a491f" fill="#8a491f" style="animation-play-state:paused" ></path>
<path d="M 1324 786 L 1607 745 L 1519 770 Z" stroke="#391d17" fill="#391d17" style="animation-play-state:paused" ></path>
<path d="M 1519 770 L 1607 745 L 1521 656 Z" stroke="#391d17" fill="#391d17" style="animation-play-state:paused" ></path>
<path d="M 1601 637 L 1607 745 L 1626 373 Z" stroke="#582d1f" fill="#582d1f" style="animation-play-state:paused" ></path>
<path d="M 1616 56 L 1616 -152 L 1616 -49 Z" stroke="#b36839" fill="#b36839" style="animation-play-state:paused" ></path>
<path d="M 1616 -49 L 1616 -152 L 1519 -137 Z" stroke="#a25930" fill="#a25930" style="animation-play-state:paused" ></path>
<path d="M 1519 -137 L 1616 -152 L 1420 -142 Z" stroke="#9a512b" fill="#9a512b" style="animation-play-state:paused" ></path>
<path d="M 1420 -142 L 1616 -152 L 1218 -122 Z" stroke="#9a512b" fill="#9a512b" style="animation-play-state:paused" ></path></g>
<style type="text/css" style="animation-play-state:paused" >#bk-0.40149694136910163 path { stroke-width: 1 }</style></g></svg>